<svg width="50" height="96" viewBox="0 0 50 96" fill="none" xmlns="http://www.w3.org/2000/svg">
<path d="M2.752 47.664C2.752 43.312 3.73333 39.408 5.696 35.952C7.65867 32.4533 10.3253 29.7227 13.696 27.76C17.1093 25.7973 20.8853 24.816 25.024 24.816C29.888 24.816 34.1333 25.9893 37.76 28.336C41.3867 30.6827 44.032 34.0107 45.696 38.32H38.72C37.4827 35.632 35.6907 33.5627 33.344 32.112C31.04 30.6613 28.2667 29.936 25.024 29.936C21.9093 29.936 19.1147 30.6613 16.64 32.112C14.1653 33.5627 12.224 35.632 10.816 38.32C9.408 40.9653 8.704 44.08 8.704 47.664C8.704 51.2053 9.408 54.32 10.816 57.008C12.224 59.6533 14.1653 61.7013 16.64 63.152C19.1147 64.6027 21.9093 65.328 25.024 65.328C28.2667 65.328 31.04 64.624 33.344 63.216C35.6907 61.7653 37.4827 59.696 38.72 57.008H45.696C44.032 61.2747 41.3867 64.5813 37.76 66.928C34.1333 69.232 29.888 70.384 25.024 70.384C20.8853 70.384 17.1093 69.424 13.696 67.504C10.3253 65.5413 7.65867 62.832 5.696 59.376C3.73333 55.92 2.752 52.016 2.752 47.664Z" fill="#2563EB"/>
<circle cx="25" cy="48" r="7" fill="#D9D9D9"/>
</svg>
