<svg width="122" height="24" viewBox="0 0 122 24" fill="none" xmlns="http://www.w3.org/2000/svg">
<path d="M5.96046e-07 12.512C5.96046e-07 10.336 0.490667 8.38401 1.472 6.65601C2.45333 4.90667 3.78667 3.54134 5.472 2.56001C7.17867 1.57867 9.06667 1.08801 11.136 1.08801C13.568 1.08801 15.6907 1.67467 17.504 2.84801C19.3173 4.02134 20.64 5.68534 21.472 7.84001H17.984C17.3653 6.49601 16.4693 5.46134 15.296 4.73601C14.144 4.01067 12.7573 3.64801 11.136 3.64801C9.57867 3.64801 8.18133 4.01067 6.944 4.73601C5.70667 5.46134 4.736 6.49601 4.032 7.84001C3.328 9.16267 2.976 10.72 2.976 12.512C2.976 14.2827 3.328 15.84 4.032 17.184C4.736 18.5067 5.70667 19.5307 6.944 20.256C8.18133 20.9813 9.57867 21.344 11.136 21.344C12.7573 21.344 14.144 20.992 15.296 20.288C16.4693 19.5627 17.3653 18.528 17.984 17.184H21.472C20.64 19.3173 19.3173 20.9707 17.504 22.144C15.6907 23.296 13.568 23.872 11.136 23.872C9.06667 23.872 7.17867 23.392 5.472 22.432C3.78667 21.4507 2.45333 20.096 1.472 18.368C0.490667 16.64 5.96046e-07 14.688 5.96046e-07 12.512ZM24.7188 14.848C24.7188 13.056 25.0814 11.488 25.8068 10.144C26.5321 8.77867 27.5241 7.72267 28.7828 6.97601C30.0628 6.22934 31.4814 5.85601 33.0388 5.85601C34.5748 5.85601 35.9081 6.18667 37.0388 6.84801C38.1694 7.50934 39.0121 8.34134 39.5668 9.34401V6.14401H42.5108V23.68H39.5668V20.416C38.9908 21.44 38.1268 22.2933 36.9748 22.976C35.8441 23.6373 34.5214 23.968 33.0068 23.968C31.4494 23.968 30.0414 23.584 28.7828 22.816C27.5241 22.048 26.5321 20.9707 25.8068 19.584C25.0814 18.1973 24.7188 16.6187 24.7188 14.848ZM39.5668 14.88C39.5668 13.5573 39.3001 12.4053 38.7668 11.424C38.2334 10.4427 37.5081 9.69601 36.5908 9.18401C35.6948 8.65067 34.7028 8.38401 33.6148 8.38401C32.5268 8.38401 31.5348 8.64001 30.6388 9.15201C29.7428 9.66401 29.0281 10.4107 28.4948 11.392C27.9614 12.3733 27.6948 13.5253 27.6948 14.848C27.6948 16.192 27.9614 17.3653 28.4948 18.368C29.0281 19.3493 29.7428 20.1067 30.6388 20.64C31.5348 21.152 32.5268 21.408 33.6148 21.408C34.7028 21.408 35.6948 21.152 36.5908 20.64C37.5081 20.1067 38.2334 19.3493 38.7668 18.368C39.3001 17.3653 39.5668 16.2027 39.5668 14.88ZM50.3438 7.62939e-06V23.68H47.4318V7.62939e-06H50.3438ZM56.2348 23.872C55.6801 23.872 55.2108 23.68 54.8268 23.296C54.4428 22.912 54.2508 22.4427 54.2508 21.888C54.2508 21.3333 54.4428 20.864 54.8268 20.48C55.2108 20.096 55.6801 19.904 56.2348 19.904C56.7681 19.904 57.2161 20.096 57.5788 20.48C57.9628 20.864 58.1548 21.3333 58.1548 21.888C58.1548 22.4427 57.9628 22.912 57.5788 23.296C57.2161 23.68 56.7681 23.872 56.2348 23.872ZM78.5055 14.496C78.5055 14.9867 78.4735 15.4773 78.4095 15.968H66.5375C66.6015 16.9493 66.8682 17.6853 67.3375 18.176C67.8282 18.6453 68.4468 18.88 69.1935 18.88C70.2388 18.88 70.9855 18.4107 71.4335 17.472H78.1215C77.8442 18.7093 77.3002 19.8187 76.4895 20.8C75.7002 21.76 74.6975 22.5173 73.4815 23.072C72.2655 23.6267 70.9215 23.904 69.4495 23.904C67.6788 23.904 66.1002 23.5307 64.7135 22.784C63.3482 22.0373 62.2708 20.9707 61.4815 19.584C60.7135 18.1973 60.3295 16.5653 60.3295 14.688C60.3295 12.8107 60.7135 11.1893 61.4815 9.82401C62.2495 8.43734 63.3162 7.37067 64.6815 6.62401C66.0682 5.87734 67.6575 5.50401 69.4495 5.50401C71.2202 5.50401 72.7882 5.86667 74.1535 6.59201C75.5188 7.31734 76.5855 8.36267 77.3535 9.72801C78.1215 11.072 78.5055 12.6613 78.5055 14.496ZM72.1055 12.928C72.1055 12.16 71.8495 11.5627 71.3375 11.136C70.8255 10.688 70.1855 10.464 69.4175 10.464C68.6495 10.464 68.0202 10.6773 67.5295 11.104C67.0388 11.5093 66.7188 12.1173 66.5695 12.928H72.1055ZM92.8163 5.56801C94.8856 5.56801 96.5283 6.26134 97.7443 7.64801C98.9603 9.01334 99.5683 10.8693 99.5683 13.216V23.68H93.2963V14.048C93.2963 13.024 93.0296 12.224 92.4963 11.648C91.9629 11.0507 91.2483 10.752 90.3523 10.752C89.4136 10.752 88.6776 11.0507 88.1443 11.648C87.6109 12.224 87.3443 13.024 87.3443 14.048V23.68H81.0723V5.72801H87.3443V8.28801C87.8989 7.47734 88.6456 6.82667 89.5843 6.33601C90.5229 5.82401 91.6003 5.56801 92.8163 5.56801ZM101.986 14.688C101.986 12.832 102.316 11.2107 102.978 9.82401C103.66 8.43734 104.588 7.37067 105.762 6.62401C106.935 5.87734 108.236 5.50401 109.666 5.50401C110.818 5.50401 111.842 5.74934 112.738 6.24001C113.655 6.70934 114.37 7.36001 114.882 8.19201V7.62939e-06H121.186V23.68H114.882V21.184C114.391 22.016 113.698 22.6773 112.802 23.168C111.906 23.6587 110.85 23.904 109.634 23.904C108.204 23.904 106.903 23.5307 105.73 22.784C104.578 22.0373 103.66 20.9707 102.978 19.584C102.316 18.176 101.986 16.544 101.986 14.688ZM114.914 14.688C114.914 13.536 114.594 12.6293 113.954 11.968C113.335 11.3067 112.567 10.976 111.65 10.976C110.711 10.976 109.932 11.3067 109.314 11.968C108.695 12.608 108.386 13.5147 108.386 14.688C108.386 15.84 108.695 16.7573 109.314 17.44C109.932 18.1013 110.711 18.432 111.65 18.432C112.567 18.432 113.335 18.1013 113.954 17.44C114.594 16.7787 114.914 15.8613 114.914 14.688Z" fill="#2563EB"/>
</svg>
